<?xml version="1.0" encoding="UTF-8" standalone="no" ?>
<!DOCTYPE svg PUBLIC "-//W3C//DTD SVG 1.1//EN" "http://www.w3.org/Graphics/SVG/1.1/DTD/svg11.dtd">
<svg xmlns="http://www.w3.org/2000/svg" xmlns:xlink="http://www.w3.org/1999/xlink" version="1.1" width="1080" height="1080" viewBox="0 0 1080 1080" xml:space="preserve">
<desc>Created with Fabric.js 5.2.4</desc>
<defs>
</defs>
<g transform="matrix(1 0 0 1 540 540)" id="a4cb5be4-6a2a-4bf6-8d13-04f4764bc989"  >
<rect style="stroke: none; stroke-width: 1; stroke-dasharray: none; stroke-linecap: butt; stroke-dashoffset: 0; stroke-linejoin: miter; stroke-miterlimit: 4; fill: rgb(255,255,255); fill-rule: nonzero; opacity: 1; visibility: hidden;" vector-effect="non-scaling-stroke"  x="-540" y="-540" rx="0" ry="0" width="1080" height="1080" />
</g>
<g transform="matrix(1 0 0 1 540 540)" id="bc1ae22b-c25c-4da3-a3aa-8c486cc58491"  >
</g>
<g transform="matrix(10 0 0 10 540 518.73)" id="e5ce44a2-580f-4f22-810f-2c91c8f74c4f"  >
<path style="stroke: rgb(0,0,0); stroke-width: 0; stroke-dasharray: none; stroke-linecap: butt; stroke-dashoffset: 0; stroke-linejoin: miter; stroke-miterlimit: 4; fill: rgb(34,139,34); fill-rule: nonzero; opacity: 1;" vector-effect="non-scaling-stroke"  transform=" translate(-49.99, -50.06)" d="M 53.2 53.6 C 53.2 53.6 87 51.300000000000004 96.30000000000001 27.5 C 96.3 27.5 110.3 53.6 53.2 53.6 z M 56.8 55 C 94.5 66.1 91.4 48.4 91.4 48.4 C 81.9 56.2 56.8 55 56.8 55 z M 56.2 56.7 C 84.1 74.7 85.80000000000001 59.6 85.80000000000001 59.6 C 76.2 63.7 56.2 56.7 56.2 56.7 z M 55.8 58.7 C 71.9 78.4 76.69999999999999 67.8 76.69999999999999 67.8 C 68.7 68.4 55.8 58.7 55.8 58.7 z M 54.9 60.9 C 61.1 77.5 66.6 71.6 66.6 71.6 C 61.3 70.3 54.9 60.9 54.9 60.9 z M 46.8 53.6 C 46.8 53.6 13 51.300000000000004 3.6999999999999957 27.5 C 3.7 27.5 -10.4 53.6 46.8 53.6 z M 8.5 48.4 C 8.5 48.4 5.4 66.1 43.1 55 C 43.1 55 18 56.2 8.5 48.4 z M 14.1 59.7 C 14.1 59.7 15.799999999999999 74.8 43.7 56.800000000000004 C 43.7 56.7 23.7 63.7 14.1 59.7 z M 23.3 67.7 C 23.3 67.7 28.1 78.3 44.2 58.6 C 44.2 58.7 31.2 68.4 23.3 67.7 z M 33.3 71.6 C 33.3 71.6 38.8 77.5 45 60.89999999999999 C 45 60.9 38.7 70.3 33.3 71.6 z" stroke-linecap="round" />
</g>
<g transform="matrix(NaN NaN NaN NaN 0 0)"  >
<g style=""   >
</g>
</g>
<g transform="matrix(NaN NaN NaN NaN 0 0)"  >
<g style=""   >
</g>
</g>
</svg>