<svg xmlns="http://www.w3.org/2000/svg" viewBox="2.16255 27.5 95.65 45.12">
	<path d="M 53.2 53.6 c 0 0 33.8 -2.3 43.1 -26.1 C 96.3 27.5 110.3 53.6 53.2 53.6 z M 56.8 55 c 37.7 11.1 34.6 -6.6 34.6 -6.6 C 81.9 56.2 56.8 55 56.8 55 z M 56.2 56.7 c 27.9 18 29.6 2.9 29.6 2.9 C 76.2 63.7 56.2 56.7 56.2 56.7 z M 55.8 58.7 c 16.1 19.7 20.9 9.1 20.9 9.1 C 68.7 68.4 55.8 58.7 55.8 58.7 z M 54.9 60.9 c 6.2 16.6 11.7 10.7 11.7 10.7 C 61.3 70.3 54.9 60.9 54.9 60.9 z M 46.8 53.6 c 0 0 -33.8 -2.3 -43.1 -26.1 C 3.7 27.5 -10.4 53.6 46.8 53.6 z M 8.5 48.4 c 0 0 -3.1 17.7 34.6 6.6 C 43.1 55 18 56.2 8.5 48.4 z M 14.1 59.7 c 0 0 1.7 15.1 29.6 -2.9 C 43.7 56.7 23.7 63.7 14.1 59.7 z M 23.3 67.7 c 0 0 4.8 10.6 20.9 -9.1 C 44.2 58.7 31.2 68.4 23.3 67.7 z M 33.3 71.6 c 0 0 5.5 5.9 11.7 -10.7 C 45 60.9 38.7 70.3 33.3 71.6 z" fill="#000000"/>
</svg>